<svg width="16" height="16" viewBox="0 0 16 16" fill="none" xmlns="http://www.w3.org/2000/svg">
<g id="&#229;&#155;&#190;&#231;&#137;&#135;" clip-path="url(#clip0_891_25963)">
<path id="Vector" d="M12.3656 6.25397C12.0779 6.25397 11.7967 6.16832 11.5575 6.00786C11.3183 5.8474 11.1319 5.61933 11.0218 5.3525C10.9117 5.08566 10.8829 4.79204 10.939 4.50877C10.9951 4.2255 11.1337 3.9653 11.3371 3.76107C11.5405 3.55684 11.7997 3.41776 12.0818 3.36141C12.364 3.30506 12.6564 3.33398 12.9222 3.4445C13.188 3.55503 13.4152 3.74219 13.575 3.98234C13.7348 4.22248 13.8201 4.50482 13.8201 4.79364C13.8201 4.98541 13.7825 5.17531 13.7094 5.35248C13.6363 5.52966 13.5292 5.69064 13.3941 5.82625C13.259 5.96185 13.0987 6.06942 12.9222 6.14281C12.7458 6.2162 12.5566 6.25397 12.3656 6.25397ZM1.45649 1.14285H14.5474C14.9332 1.14285 15.3031 1.29671 15.5759 1.57057C15.8487 1.84443 16.002 2.21587 16.002 2.60316V13.3968C16.002 13.5886 15.9643 13.7785 15.8912 13.9557C15.8181 14.1328 15.711 14.2938 15.5759 14.4294C15.4409 14.565 15.2805 14.6726 15.104 14.746C14.9276 14.8194 14.7384 14.8571 14.5474 14.8571H1.45649C1.07073 14.8571 0.700758 14.7033 0.427978 14.4294C0.155199 14.1556 0.00195313 13.7841 0.00195312 13.3968V2.60316C0.00195312 2.21587 0.155199 1.84443 0.427978 1.57057C0.700758 1.29671 1.07073 1.14285 1.45649 1.14285ZM14.8383 12.82V2.60316C14.8383 2.52571 14.8077 2.45142 14.7531 2.39665C14.6986 2.34188 14.6246 2.31111 14.5474 2.31111H1.45649C1.37934 2.31111 1.30535 2.34188 1.25079 2.39665C1.19624 2.45142 1.16558 2.52571 1.16558 2.60316V12.3819L5.17287 7.55554L7.84195 11.126L10.511 9.34445L14.8383 12.82Z" fill="#788296" fill-opacity="0.25"/>
</g>
<defs>
<clipPath id="clip0_891_25963">
<rect width="16" height="16" fill="white" transform="translate(0.00195312)"/>
</clipPath>
</defs>
</svg>
