<svg width="16" height="16" viewBox="0 0 16 16" fill="none" xmlns="http://www.w3.org/2000/svg">
<g id="icon_TemplateLibrary_illu_&#230;&#168;&#161;&#230;&#157;&#191;&#229;&#186;&#147;">
<path id="Rectangle 1" d="M0.501953 4C0.501953 2.067 2.06896 0.5 4.00195 0.5C5.93495 0.5 7.50195 2.067 7.50195 4V7.5H4.00195C2.06896 7.5 0.501953 5.933 0.501953 4Z" fill="#F06E7D"/>
<path id="Rectangle 3" d="M0.501953 12C0.501953 10.067 2.06896 8.5 4.00195 8.5H7.50195V12C7.50195 13.933 5.93495 15.5 4.00195 15.5C2.06896 15.5 0.501953 13.933 0.501953 12Z" fill="#008AFF"/>
<path id="Rectangle 2" d="M8.50195 4C8.50195 2.067 10.069 0.5 12.002 0.5C13.9349 0.5 15.502 2.067 15.502 4C15.502 5.933 13.9349 7.5 12.002 7.5H8.50195V4Z" fill="#FFA000"/>
<path id="Rectangle 4" d="M8.50195 8.5H12.002C13.9349 8.5 15.502 10.067 15.502 12C15.502 13.933 13.9349 15.5 12.002 15.5C10.069 15.5 8.50195 13.933 8.50195 12V8.5Z" fill="#008AFF"/>
</g>
</svg>
