<svg width="16" height="16" viewBox="0 0 16 16" fill="none" xmlns="http://www.w3.org/2000/svg">
<g clip-path="url(#clip0_2316_37843)">
<path fill-rule="evenodd" clip-rule="evenodd" d="M10.8571 0.571429C10.8571 0.255837 11.113 0 11.4286 0C11.7442 0 12 0.255837 12 0.571429V4C12 4.31559 11.7442 4.57143 11.4286 4.57143C11.113 4.57143 10.8571 4.31559 10.8571 4V0.571429ZM9.71429 1.71429L6.85714 1.71429V4C6.85714 4.94677 6.08963 5.71429 5.14286 5.71429C4.19608 5.71429 3.42857 4.94677 3.42857 4V1.75479C1.49012 2.03207 0 3.69916 0 5.71428V11.4286C0 13.6377 1.79086 15.4286 4 15.4286H12C14.2091 15.4286 16 13.6377 16 11.4286V5.71429C16 3.90227 14.7951 2.37167 13.1429 1.87993V4C13.1429 4.94677 12.3753 5.71429 11.4286 5.71429C10.4818 5.71429 9.71429 4.94677 9.71429 4V1.71429ZM6.34291 8.64H12.0572C12.2088 8.64 12.3541 8.57979 12.4613 8.47263C12.5684 8.36547 12.6286 8.22012 12.6286 8.06857C12.6286 7.91702 12.5684 7.77167 12.4613 7.66451C12.3541 7.55734 12.2088 7.49714 12.0572 7.49714H6.34291C6.19136 7.49714 6.04601 7.55734 5.93885 7.66451C5.83169 7.77167 5.77148 7.91702 5.77148 8.06857C5.77148 8.22012 5.83169 8.36547 5.93885 8.47263C6.04601 8.57979 6.19136 8.64 6.34291 8.64ZM6.34291 12.0686H12.0572C12.2088 12.0686 12.3541 12.0084 12.4613 11.9012C12.5684 11.794 12.6286 11.6487 12.6286 11.4971C12.6286 11.3456 12.5684 11.2002 12.4613 11.0931C12.3541 10.9859 12.2088 10.9257 12.0572 10.9257H6.34291C6.19136 10.9257 6.04601 10.9859 5.93885 11.0931C5.83169 11.2002 5.77148 11.3456 5.77148 11.4971C5.77148 11.6487 5.83169 11.794 5.93885 11.9012C6.04601 12.0084 6.19136 12.0686 6.34291 12.0686ZM4.62863 12.0686H3.48577V10.9257H4.62863V12.0686ZM4.62863 7.49714H3.48577V8.64H4.62863V7.49714ZM5.14286 0C4.82727 0 4.57143 0.255837 4.57143 0.571428V4C4.57143 4.31559 4.82727 4.57143 5.14286 4.57143C5.45845 4.57143 5.71429 4.31559 5.71429 4V0.571428C5.71429 0.255837 5.45845 0 5.14286 0Z" fill="white" fill-opacity="0.5"/>
</g>
<defs>
<clipPath id="clip0_2316_37843">
<rect width="16" height="16" fill="white"/>
</clipPath>
</defs>
</svg>
