<svg width="16" height="16" viewBox="0 0 16 16" fill="none" xmlns="http://www.w3.org/2000/svg">
<g clip-path="url(#clip0_2316_37840)">
<path fill-rule="evenodd" clip-rule="evenodd" d="M15.9859 3.51312C16.0073 3.4188 16.0043 3.3206 15.9774 3.22772C15.9504 3.13484 15.9003 3.05034 15.8317 2.98213L12.9999 0.178721C12.9323 0.107209 12.8474 0.0543852 12.7534 0.0253741C12.6593 -0.00363708 12.5594 -0.00785045 12.4633 0.0131428H2.2837C1.67802 0.0131428 1.09716 0.253761 0.66888 0.682063C0.240604 1.11037 0 1.69127 0 2.29698V13.7162C0 14.3219 0.240604 14.9028 0.66888 15.3311C1.09716 15.7594 1.67802 16 2.2837 16H13.7022C14.3079 16 14.8887 15.7594 15.317 15.3311C15.7453 14.9028 15.9859 14.3219 15.9859 13.7162V3.54167V3.51312ZM3.4255 1.14192H11.9894V4.28055C11.9894 5.38512 11.0939 6.28055 9.98936 6.28055H5.4255C4.32093 6.28055 3.4255 5.38512 3.4255 4.28055V1.14192ZM4.28376 8.56439C3.17919 8.56439 2.28376 9.45982 2.28376 10.5644V14.8449H13.7022V10.5644C13.7022 9.45982 12.8068 8.56439 11.7022 8.56439H4.28376Z" fill="white" fill-opacity="0.5"/>
<rect x="7.42871" y="1.14285" width="1.14286" height="5.14286" fill="white" fill-opacity="0.5"/>
</g>
<defs>
<clipPath id="clip0_2316_37840">
<rect width="16" height="16" fill="white"/>
</clipPath>
</defs>
</svg>
