<?xml version="1.0" standalone="no"?><!DOCTYPE svg PUBLIC "-//W3C//DTD SVG 1.1//EN" "http://www.w3.org/Graphics/SVG/1.1/DTD/svg11.dtd"><svg t="1711681985571" class="icon" viewBox="0 0 1024 1024" version="1.1" xmlns="http://www.w3.org/2000/svg" p-id="3093" xmlns:xlink="http://www.w3.org/1999/xlink" width="32" height="32"><path d="M977.066667 110.933333c-8.533333-17.066667-21.333333-25.6-38.4-25.6H85.333333c-17.066667 0-29.866667 8.533333-38.4 25.6-8.533333 12.8-4.266667 34.133333 4.266667 42.666667L384 546.133333V810.666667c0 17.066667 8.533333 29.866667 25.6 38.4l170.666667 85.333333c4.266667 4.266667 8.533333 4.266667 17.066666 4.266667 25.6 0 42.666667-17.066667 42.666667-42.666667v-349.866667l332.8-392.533333c8.533333-12.8 12.8-29.866667 4.266667-42.666667z m-413.866667 392.533334c-4.266667 8.533333-8.533333 17.066667-8.533333 29.866666v294.4l-85.333334-42.666666v-251.733334c0-8.533333-4.266667-21.333333-8.533333-25.6L179.2 170.666667h669.866667l-285.866667 332.8z" p-id="3094" fill="#c9cdd5"></path></svg>