<svg width="16" height="16" viewBox="0 0 16 16" fill="none" xmlns="http://www.w3.org/2000/svg">
<g id="icos_illu_pdf">
<path id="Subtract" fill-rule="evenodd" clip-rule="evenodd" d="M10.2311 0H4.0019C2.73954 0 1.71619 1.02335 1.71619 2.28571V13.7143C1.71619 14.9767 2.73954 16 4.0019 16H12.0019C13.2643 16 14.2876 14.9767 14.2876 13.7143V4.05656L10.2311 0Z" fill="#788296" fill-opacity="0.25"/>
<path id="Vector" d="M10.2877 0V3.55654C10.2877 3.80145 10.4885 4 10.7362 4H14.2877L10.2877 0Z" fill="white" fill-opacity="0.5"/>
<path id="Vector_2" d="M11.2326 13.1429C10.4398 13.1429 9.72872 11.7639 9.35461 10.8672C8.72527 10.6009 8.03154 10.3522 7.35763 10.1915C6.76795 10.5858 5.76452 11.1761 4.99397 11.1761C4.51579 11.1761 4.1714 10.9325 4.04504 10.508C3.94842 10.1588 4.03018 9.9177 4.13424 9.78708C4.3374 9.50576 4.75611 9.36259 5.38297 9.36259C5.89088 9.36259 6.53506 9.45301 7.25358 9.62883C7.71688 9.29477 8.18763 8.90795 8.60636 8.49852C8.42054 7.60433 8.21736 6.15501 8.73272 5.48688C8.9879 5.16787 9.3769 5.06237 9.84765 5.20556C10.363 5.35625 10.5587 5.67526 10.6182 5.92644C10.8362 6.79803 9.84765 7.97356 9.18117 8.66431C9.32983 9.26212 9.52556 9.89258 9.76342 10.4703C10.7198 10.9023 11.857 11.5479 11.9858 12.2512C12.0379 12.4948 11.9635 12.7209 11.7678 12.9193C11.5993 13.06 11.4209 13.1429 11.2326 13.1429H11.2326ZM10.5198 11.6225C10.6942 12.016 10.8605 12.2017 10.9482 12.2017C10.9618 12.2017 10.9808 12.1957 11.0079 12.1716C11.0404 12.1354 11.0404 12.1113 11.035 12.0893C11.0169 11.9859 10.8696 11.8162 10.5198 11.6225ZM5.48549 10.0297C5.20656 10.0297 5.1299 10.098 5.10656 10.1299C5.0999 10.1402 5.0799 10.1709 5.0999 10.2506C5.11656 10.3189 5.16324 10.3917 5.30768 10.3917C5.48881 10.3917 5.75106 10.2881 6.05552 10.1026C5.83774 10.0536 5.64549 10.0297 5.48549 10.0297ZM8.21624 9.67828C8.3829 9.72534 8.5557 9.78599 8.71624 9.84874C8.65795 9.69397 8.61092 9.53292 8.57106 9.37815C8.45483 9.48065 8.33653 9.58072 8.21624 9.67828ZM9.3942 6.28313C9.33492 6.28313 9.29333 6.30538 9.2559 6.34668C9.14567 6.48755 9.13318 6.84235 9.21845 7.29671C9.54186 6.94509 9.71761 6.62205 9.67393 6.44941C9.66768 6.424 9.64897 6.34668 9.49818 6.30219C9.45658 6.28949 9.4254 6.28313 9.3942 6.28313Z" fill="white"/>
</g>
</svg>
