<svg width="16" height="16" viewBox="0 0 16 16" fill="none" xmlns="http://www.w3.org/2000/svg">
<g id="&#230;&#137;&#147;&#229;&#141;&#176;">
<path id="Rectangle 345" d="M2.85913 2C2.85913 0.895431 3.75456 0 4.85913 0H11.1448C12.2494 0 13.1448 0.895431 13.1448 2V2.28571H2.85913V2Z" fill="#788296" fill-opacity="0.25"/>
<path id="Subtract" fill-rule="evenodd" clip-rule="evenodd" d="M2.00195 3.42857C0.897384 3.42857 0.00195312 4.324 0.00195312 5.42857V9.42857C0.00195312 10.4361 0.747012 11.2697 1.71624 11.4083V10.4206C1.36552 10.1067 1.14481 9.65057 1.14481 9.14286C1.14481 8.19608 1.91232 7.42857 2.8591 7.42857H3.71624H12.2877H13.1448C14.0916 7.42857 14.8591 8.19608 14.8591 9.14286C14.8591 9.65057 14.6384 10.1067 14.2877 10.4206V11.4083C15.2569 11.2697 16.002 10.4361 16.002 9.42857V5.42857C16.002 4.324 15.1065 3.42857 14.002 3.42857H2.00195ZM12.002 4.57143C11.6864 4.57143 11.4305 4.82727 11.4305 5.14286C11.4305 5.45845 11.6864 5.71429 12.002 5.71429H12.5734C12.889 5.71429 13.1448 5.45845 13.1448 5.14286C13.1448 4.82727 12.889 4.57143 12.5734 4.57143H12.002Z" fill="#788296" fill-opacity="0.25"/>
<path id="Subtract_2" fill-rule="evenodd" clip-rule="evenodd" d="M2.85913 9.71429H13.1448V14C13.1448 15.1046 12.2494 16 11.1448 16H4.85913C3.75456 16 2.85913 15.1046 2.85913 14V9.71429ZM4.14485 11.4286C4.14485 11.113 4.40068 10.8571 4.71627 10.8571H11.2877C11.6033 10.8571 11.8591 11.113 11.8591 11.4286C11.8591 11.7442 11.6033 12 11.2877 12H4.71627C4.40068 12 4.14485 11.7442 4.14485 11.4286ZM4.71627 13.1429C4.40068 13.1429 4.14485 13.3987 4.14485 13.7143C4.14485 14.0299 4.40068 14.2857 4.71627 14.2857H11.2877C11.6033 14.2857 11.8591 14.0299 11.8591 13.7143C11.8591 13.3987 11.6033 13.1429 11.2877 13.1429H4.71627Z" fill="#788296" fill-opacity="0.25"/>
<path id="Rectangle 347" d="M2.28772 9.14286C2.28772 8.82726 2.54356 8.57143 2.85915 8.57143H13.1449C13.4605 8.57143 13.7163 8.82726 13.7163 9.14286C13.7163 9.45845 13.4605 9.71428 13.1449 9.71428H2.85915C2.54356 9.71428 2.28772 9.45845 2.28772 9.14286Z" fill="#788296" fill-opacity="0.25"/>
</g>
</svg>
