<svg width="16" height="16" viewBox="0 0 16 16" fill="none" xmlns="http://www.w3.org/2000/svg">
<g id="&#228;&#191;&#157;&#229;&#173;&#152;/&#229;&#143;&#166;&#229;&#173;&#152;" clip-path="url(#clip0_891_25957)">
<path id="Subtract" fill-rule="evenodd" clip-rule="evenodd" d="M15.9878 3.51312C16.0092 3.4188 16.0063 3.3206 15.9793 3.22772C15.9524 3.13484 15.9022 3.05034 15.8337 2.98213L13.0019 0.178721C12.9343 0.107209 12.8494 0.0543852 12.7553 0.0253741C12.6613 -0.00363708 12.5614 -0.00785045 12.4652 0.0131428H2.28565C1.67998 0.0131428 1.09911 0.253761 0.670833 0.682063C0.242557 1.11037 0.00195312 1.69127 0.00195312 2.29698V13.7162C0.00195312 14.3219 0.242557 14.9028 0.670833 15.3311C1.09911 15.7594 1.67998 16 2.28565 16H13.7041C14.3098 16 14.8907 15.7594 15.319 15.3311C15.7472 14.9028 15.9878 14.3219 15.9878 13.7162V3.54167V3.51312ZM3.42746 1.14192H11.9913V4.28055C11.9913 5.38512 11.0959 6.28055 9.99132 6.28055H5.42745C4.32289 6.28055 3.42746 5.38512 3.42746 4.28055V1.14192ZM4.28571 8.56439C3.18114 8.56439 2.28571 9.45982 2.28571 10.5644V14.8449H13.7042V10.5644C13.7042 9.45982 12.8088 8.56439 11.7042 8.56439H4.28571Z" fill="#788296" fill-opacity="0.25"/>
<rect id="Rectangle 350" x="7.43054" y="1.14285" width="1.14286" height="5.14286" fill="#788296" fill-opacity="0.25"/>
</g>
<defs>
<clipPath id="clip0_891_25957">
<rect width="16" height="16" fill="white" transform="translate(0.00195312)"/>
</clipPath>
</defs>
</svg>
