<svg width="28" height="24" viewBox="0 0 28 24" fill="none" xmlns="http://www.w3.org/2000/svg">
  <g clip-path="url(#clip0_334_59560)">
    <path d="M8 0H27C27.55 0 28 0.45 28 1V23C28 23.55 27.55 24 27 24H8C7.45 24 7 23.55 7 23V1C7 0.45 7.45 0 8 0Z" fill="url(#paint0_linear_334_59560)"></path>
    <path d="M7 12H28V18H7V12Z" fill="url(#paint1_linear_334_59560)"></path>
    <path d="M7 23C7 23.55 7.45 24 8 24H27C27.55 24 28 23.55 28 23V18H7V23Z" fill="url(#paint2_linear_334_59560)"></path>
    <path d="M7 6H28V12H7V6Z" fill="url(#paint3_linear_334_59560)"></path>
    <path d="M1 5H13C13.55 5 14 5.45 14 6V18C14 18.55 13.55 19 13 19H1C0.45 19 0 18.55 0 18V6C0 5.45 0.45 5 1 5Z" fill="url(#paint4_linear_334_59560)"></path>
    <path d="M10.7502 7.8999H12.2502L10.1002 15.9499H9.9502H8.6002H8.4502L7.1002 10.9499L5.7502 15.9499H5.6002H4.2502H4.1002L1.9502 7.8999H3.4502L4.9502 13.4499L6.3502 8.1999L6.2502 7.8999H6.4002H7.7002H7.8502L7.7502 8.1999L9.1502 13.4499L10.7502 7.8999Z" fill="white"></path>
  </g>
  <defs>
    <linearGradient id="paint0_linear_334_59560" x1="17.499" y1="23.9992" x2="17.499" y2="-0.000799656" gradientUnits="userSpaceOnUse">
      <stop offset="0.9" stop-color="#1DA9F0"></stop>
      <stop offset="1" stop-color="#1CA4E9"></stop>
    </linearGradient>
    <linearGradient id="paint1_linear_334_59560" x1="17.499" y1="17.9998" x2="17.499" y2="11.9998" gradientUnits="userSpaceOnUse">
      <stop offset="0.7" stop-color="#005EC2"></stop>
      <stop offset="1" stop-color="#005AB9"></stop>
    </linearGradient>
    <linearGradient id="paint2_linear_334_59560" x1="17.5" y1="24" x2="17.5" y2="18" gradientUnits="userSpaceOnUse">
      <stop offset="0.7" stop-color="#00469C"></stop>
      <stop offset="1" stop-color="#00408F"></stop>
    </linearGradient>
    <linearGradient id="paint3_linear_334_59560" x1="17.499" y1="11.9998" x2="17.499" y2="5.9998" gradientUnits="userSpaceOnUse">
      <stop offset="0.7" stop-color="#0082DC"></stop>
      <stop offset="1" stop-color="#007BCF"></stop>
    </linearGradient>
    <linearGradient id="paint4_linear_334_59560" x1="7.0004" y1="19.0002" x2="7.0004" y2="5.0002" gradientUnits="userSpaceOnUse">
      <stop stop-color="#0048AB"></stop>
      <stop offset="1" stop-color="#005EBB"></stop>
    </linearGradient>
    <clipPath id="clip0_334_59560">
      <rect width="28" height="24" fill="white"></rect>
    </clipPath>
  </defs>
</svg>