<svg width="16" height="16" viewBox="0 0 16 16" fill="none" xmlns="http://www.w3.org/2000/svg">
<path d="M12.3636 6.25397C12.076 6.25397 11.7947 6.16832 11.5555 6.00786C11.3163 5.8474 11.1299 5.61933 11.0198 5.3525C10.9097 5.08566 10.8809 4.79204 10.937 4.50877C10.9932 4.2255 11.1317 3.9653 11.3351 3.76107C11.5385 3.55684 11.7977 3.41776 12.0799 3.36141C12.362 3.30506 12.6545 3.33398 12.9203 3.4445C13.186 3.55503 13.4132 3.74219 13.573 3.98234C13.7329 4.22248 13.8182 4.50482 13.8182 4.79364C13.8182 4.98541 13.7806 5.17531 13.7075 5.35248C13.6344 5.52966 13.5272 5.69064 13.3922 5.82625C13.2571 5.96185 13.0967 6.06942 12.9203 6.14281C12.7438 6.2162 12.5547 6.25397 12.3636 6.25397ZM1.45454 1.14285H14.5455C14.9312 1.14285 15.3012 1.29671 15.574 1.57057C15.8468 1.84443 16 2.21587 16 2.60316V13.3968C16 13.5886 15.9624 13.7785 15.8893 13.9557C15.8162 14.1328 15.709 14.2938 15.574 14.4294C15.4389 14.565 15.2786 14.6726 15.1021 14.746C14.9256 14.8194 14.7365 14.8571 14.5455 14.8571H1.45454C1.06877 14.8571 0.698804 14.7033 0.426025 14.4294C0.153246 14.1556 0 13.7841 0 13.3968V2.60316C0 2.21587 0.153246 1.84443 0.426025 1.57057C0.698804 1.29671 1.06877 1.14285 1.45454 1.14285ZM14.8364 12.82V2.60316C14.8364 2.52571 14.8057 2.45142 14.7512 2.39665C14.6966 2.34188 14.6226 2.31111 14.5455 2.31111H1.45454C1.37739 2.31111 1.3034 2.34188 1.24884 2.39665C1.19428 2.45142 1.16363 2.52571 1.16363 2.60316V12.3819L5.17091 7.55554L7.83999 11.126L10.5091 9.34445L14.8364 12.82Z" fill="white" fill-opacity="0.5"/>
</svg>
