<svg width="16" height="16" viewBox="0 0 16 16" fill="none" xmlns="http://www.w3.org/2000/svg">
<path d="M2.85693 2C2.85693 0.895431 3.75236 0 4.85693 0H11.1426C12.2472 0 13.1426 0.895431 13.1426 2V2.28571H2.85693V2Z" fill="white" fill-opacity="0.5"/>
<path fill-rule="evenodd" clip-rule="evenodd" d="M2 3.42857C0.895431 3.42857 0 4.324 0 5.42857V9.42857C0 10.4361 0.745059 11.2697 1.71429 11.4083V10.4206C1.36357 10.1067 1.14286 9.65057 1.14286 9.14286C1.14286 8.19608 1.91037 7.42857 2.85714 7.42857H3.71429H12.2857H13.1429C14.0896 7.42857 14.8571 8.19608 14.8571 9.14286C14.8571 9.65057 14.6364 10.1067 14.2857 10.4206V11.4083C15.2549 11.2697 16 10.4361 16 9.42857V5.42857C16 4.324 15.1046 3.42857 14 3.42857H2ZM12 4.57143C11.6844 4.57143 11.4286 4.82727 11.4286 5.14286C11.4286 5.45845 11.6844 5.71429 12 5.71429H12.5714C12.887 5.71429 13.1429 5.45845 13.1429 5.14286C13.1429 4.82727 12.887 4.57143 12.5714 4.57143H12Z" fill="white" fill-opacity="0.5"/>
<path fill-rule="evenodd" clip-rule="evenodd" d="M2.85693 9.71429H13.1426V14C13.1426 15.1046 12.2472 16 11.1426 16H4.85694C3.75237 16 2.85693 15.1046 2.85693 14V9.71429ZM4.14265 11.4286C4.14265 11.113 4.39849 10.8571 4.71408 10.8571H11.2855C11.6011 10.8571 11.8569 11.113 11.8569 11.4286C11.8569 11.7442 11.6011 12 11.2855 12H4.71408C4.39849 12 4.14265 11.7442 4.14265 11.4286ZM4.71408 13.1429C4.39848 13.1429 4.14265 13.3987 4.14265 13.7143C4.14265 14.0299 4.39849 14.2857 4.71408 14.2857H11.2855C11.6011 14.2857 11.8569 14.0299 11.8569 13.7143C11.8569 13.3987 11.6011 13.1429 11.2855 13.1429H4.71408Z" fill="white" fill-opacity="0.5"/>
<path d="M2.28564 9.14286C2.28564 8.82726 2.54148 8.57143 2.85707 8.57143H13.1428C13.4584 8.57143 13.7142 8.82726 13.7142 9.14286V9.14286C13.7142 9.45845 13.4584 9.71428 13.1428 9.71428H2.85707C2.54148 9.71428 2.28564 9.45845 2.28564 9.14286V9.14286Z" fill="white" fill-opacity="0.5"/>
</svg>
