<svg width="16" height="16" viewBox="0 0 16 16" fill="none" xmlns="http://www.w3.org/2000/svg">
<path d="M10.2856 0V3.55654C10.2856 3.80145 10.4864 4 10.7341 4H14.2856L10.2856 0Z" fill="white" fill-opacity="0.5"/>
<path fill-rule="evenodd" clip-rule="evenodd" d="M4.00007 0H10.2292L14.2858 4.05656V13.7143C14.2858 14.9767 13.2624 16 12.0001 16H4.00007C2.7377 16 1.71436 14.9767 1.71436 13.7143V2.28571C1.71436 1.02335 2.7377 0 4.00007 0ZM9.35266 10.8672C9.72677 11.7639 10.4378 13.1429 11.2307 13.1429C11.419 13.1429 11.5974 13.06 11.7659 12.9193C11.9616 12.7209 12.0359 12.4948 11.9839 12.2512C11.855 11.5478 10.7178 10.9023 9.76146 10.4703C9.52361 9.89257 9.32787 9.26211 9.17921 8.6643C9.8457 7.97355 10.8343 6.79802 10.6162 5.92644C10.5568 5.67525 10.3611 5.35625 9.8457 5.20555C9.37495 5.06236 8.98595 5.16787 8.73077 5.48687C8.21541 6.155 8.41859 7.60432 8.60441 8.49851C8.18568 8.90794 7.71493 9.29476 7.25162 9.62883C6.53311 9.45301 5.88893 9.36258 5.38102 9.36258C4.75416 9.36258 4.33544 9.50575 4.13228 9.78707C4.02823 9.9177 3.94646 10.1588 4.04309 10.508C4.16944 10.9325 4.51384 11.1761 4.99202 11.1761C5.76257 11.1761 6.766 10.5858 7.35568 10.1915C8.02959 10.3522 8.72332 10.6009 9.35266 10.8672ZM10.9462 12.2017C10.8586 12.2017 10.6923 12.016 10.5179 11.6225C10.8676 11.8162 11.0149 11.9859 11.033 12.0893C11.0384 12.1113 11.0384 12.1354 11.0059 12.1716C10.9788 12.1956 10.9598 12.2017 10.9462 12.2017ZM5.10461 10.1299C5.12794 10.098 5.20461 10.0297 5.48353 10.0297C5.64353 10.0297 5.83578 10.0536 6.05357 10.1026C5.74911 10.2881 5.48686 10.3917 5.30573 10.3917C5.16128 10.3917 5.11461 10.3189 5.09794 10.2506C5.07795 10.1709 5.09793 10.1402 5.1046 10.1299L5.10461 10.1299ZM8.71428 9.84874C8.55375 9.78598 8.38095 9.72533 8.21428 9.67827C8.33458 9.58071 8.45288 9.48064 8.56911 9.37815C8.60896 9.53292 8.656 9.69397 8.71428 9.84874ZM9.25395 6.34667C9.29137 6.30537 9.33296 6.28312 9.39225 6.28312C9.42345 6.28312 9.45462 6.28948 9.49623 6.30218C9.64669 6.34658 9.66565 6.42366 9.67194 6.44924L9.67198 6.44941C9.71566 6.62204 9.53991 6.94508 9.2165 7.2967C9.13123 6.84235 9.14371 6.48754 9.25395 6.34667Z" fill="white" fill-opacity="0.5"/>
</svg>
