<svg width="28" height="28" viewBox="0 0 28 28" fill="none" xmlns="http://www.w3.org/2000/svg">
  <g clip-path="url(#clip0_334_59610)">
    <path d="M15 1C17.5712 1 20.0846 1.76244 22.2224 3.1909C24.3603 4.61935 26.0265 6.64968 27.0104 9.02512C27.9944 11.4006 28.2518 14.0144 27.7502 16.5362C27.2486 19.0579 26.0105 21.3743 24.1924 23.1924C22.3743 25.0105 20.0579 26.2486 17.5362 26.7502C15.0144 27.2518 12.4006 26.9944 10.0251 26.0104C7.64968 25.0265 5.61935 23.3603 4.19089 21.2224C2.76244 19.0846 2 16.5712 2 14C2 10.5522 3.36964 7.24558 5.80761 4.80761C8.24558 2.36964 11.5522 1 15 1V1Z" fill="#E9573B"></path>
    <path style="mix-blend-mode:overlay" d="M15 1C17.5712 1 20.0846 1.76244 22.2224 3.1909C24.3603 4.61935 26.0265 6.64968 27.0104 9.02512C27.9944 11.4006 28.2518 14.0144 27.7502 16.5362C27.2486 19.0579 26.0105 21.3743 24.1924 23.1924C22.3743 25.0105 20.0579 26.2486 17.5362 26.7502C15.0144 27.2518 12.4006 26.9944 10.0251 26.0104C7.64968 25.0265 5.61935 23.3603 4.19089 21.2224C2.76244 19.0846 2 16.5712 2 14C2 10.5522 3.36964 7.24558 5.80761 4.80761C8.24558 2.36964 11.5522 1 15 1V1Z" fill="url(#paint0_linear_334_59610)"></path>
    <path d="M15 1C11.5522 1 8.24558 2.36964 5.80761 4.80761C3.36964 7.24558 2 10.5522 2 14C2 13.795 15 14 15 14V1Z" fill="#F96949"></path>
    <path style="mix-blend-mode:overlay" d="M15 1C11.5522 1 8.24558 2.36964 5.80761 4.80761C3.36964 7.24558 2 10.5522 2 14C2 13.795 15 14 15 14V1Z" fill="url(#paint1_linear_334_59610)"></path>
    <path d="M15 1C16.7072 1 18.3977 1.33625 19.9749 1.98957C21.5521 2.64288 22.9852 3.60045 24.1924 4.80761C25.3996 6.01477 26.3571 7.44788 27.0104 9.02512C27.6637 10.6023 28 12.2928 28 14C28 13.795 15 14 15 14V1Z" fill="#FF9071"></path>
    <path style="mix-blend-mode:overlay" d="M15 1C16.7072 1 18.3977 1.33625 19.9749 1.98957C21.5521 2.64288 22.9852 3.60045 24.1924 4.80761C25.3996 6.01477 26.3571 7.44788 27.0104 9.02512C27.6637 10.6023 28 12.2928 28 14C28 13.795 15 14 15 14V1Z" fill="url(#paint2_linear_334_59610)"></path>
    <path d="M1 7H13C13.2652 7 13.5196 7.10536 13.7071 7.29289C13.8946 7.48043 14 7.73478 14 8V20C14 20.2652 13.8946 20.5196 13.7071 20.7071C13.5196 20.8946 13.2652 21 13 21H1C0.734784 21 0.48043 20.8946 0.292893 20.7071C0.105357 20.5196 0 20.2652 0 20V8C0 7.73478 0.105357 7.48043 0.292893 7.29289C0.48043 7.10536 0.734784 7 1 7Z" fill="url(#paint3_linear_334_59610)"></path>
    <path d="M7 15.5H5.5V18.5H4V9.5H7C7.79565 9.5 8.55871 9.81607 9.12132 10.3787C9.68393 10.9413 10 11.7044 10 12.5C10 13.2956 9.68393 14.0587 9.12132 14.6213C8.55871 15.1839 7.79565 15.5 7 15.5ZM7 11H5.5V14H7C7.39782 14 7.77936 13.842 8.06066 13.5607C8.34196 13.2794 8.5 12.8978 8.5 12.5C8.5 12.1022 8.34196 11.7206 8.06066 11.4393C7.77936 11.158 7.39782 11 7 11Z" fill="white"></path>
  </g>
  <defs>
    <linearGradient id="paint0_linear_334_59610" x1="15.04" y1="27.08" x2="15.04" y2="1.08" gradientUnits="userSpaceOnUse">
      <stop stop-opacity="0.2"></stop>
      <stop offset="0.5" stop-opacity="0"></stop>
    </linearGradient>
    <linearGradient id="paint1_linear_334_59610" x1="8.54" y1="13.95" x2="8.54" y2="0.95" gradientUnits="userSpaceOnUse">
      <stop stop-opacity="0.2"></stop>
      <stop offset="1" stop-opacity="0"></stop>
    </linearGradient>
    <linearGradient id="paint2_linear_334_59610" x1="-4112.46" y1="-22524.8" x2="-4112.46" y2="-22862.8" gradientUnits="userSpaceOnUse">
      <stop stop-opacity="0.2"></stop>
      <stop offset="1" stop-opacity="0"></stop>
    </linearGradient>
    <linearGradient id="paint3_linear_334_59610" x1="7.06" y1="21.04" x2="7.06" y2="7.04" gradientUnits="userSpaceOnUse">
      <stop stop-color="#BF311F"></stop>
      <stop offset="1" stop-color="#D1472C"></stop>
    </linearGradient>
    <clipPath id="clip0_334_59610">
      <rect width="28" height="28" fill="white"></rect>
    </clipPath>
  </defs>
</svg>