<svg width="29" height="28" viewBox="0 0 29 28" fill="none" xmlns="http://www.w3.org/2000/svg">
  <g clip-path="url(#clip0_334_59584)">
    <path d="M8.5 2H27.5C28.05 2 28.5 2.45937 28.5 3.02083V25.4792C28.5 26.0406 28.05 26.5 27.5 26.5H8.5C7.95 26.5 7.5 26.0406 7.5 25.4792V3.02083C7.5 2.45937 7.95 2 8.5 2Z" fill="url(#paint0_linear_334_59584)"></path>
    <path d="M7.5 14.25H28.5V20.375H7.5V14.25Z" fill="url(#paint1_linear_334_59584)"></path>
    <path d="M7.5 25.4792C7.5 26.0406 7.95 26.5 8.5 26.5H27.5C28.05 26.5 28.5 26.0406 28.5 25.4792V20.375H7.5V25.4792Z" fill="url(#paint2_linear_334_59584)"></path>
    <path d="M7.5 8.125H28.5V14.25H7.5V8.125Z" fill="url(#paint3_linear_334_59584)"></path>
    <path d="M1.5 7.10419H13.5C14.05 7.10419 14.5 7.56356 14.5 8.12502V20.375C14.5 20.9365 14.05 21.3959 13.5 21.3959H1.5C0.95 21.3959 0.5 20.9365 0.5 20.375V8.12502C0.5 7.56356 0.95 7.10419 1.5 7.10419Z" fill="url(#paint4_linear_334_59584)"></path>
    <path d="M10.5999 18.2822H9.0999L7.2499 15.2707L5.3999 18.2311H3.8999L6.4999 14.0967L3.9499 10.0645H5.4499L7.2499 12.9228L9.0499 10.0645H10.5499L7.9999 14.0967L10.5999 18.2822Z" fill="white"></path>
  </g>
  <defs>
    <linearGradient id="paint0_linear_334_59584" x1="18.0002" y1="26.4992" x2="18.0002" y2="1.99918" gradientUnits="userSpaceOnUse">
      <stop offset="0.9" stop-color="#00D38E"></stop>
      <stop offset="1" stop-color="#00C987"></stop>
    </linearGradient>
    <linearGradient id="paint1_linear_334_59584" x1="18.0002" y1="20.3748" x2="18.0002" y2="14.2498" gradientUnits="userSpaceOnUse">
      <stop offset="0.49" stop-color="#008449"></stop>
      <stop offset="0.5" stop-color="#008449"></stop>
      <stop offset="1" stop-color="#007C44"></stop>
    </linearGradient>
    <linearGradient id="paint2_linear_334_59584" x1="18" y1="20.375" x2="18" y2="26.5" gradientUnits="userSpaceOnUse">
      <stop offset="0.7" stop-color="#00633D"></stop>
      <stop offset="1" stop-color="#005C39"></stop>
    </linearGradient>
    <linearGradient id="paint3_linear_334_59584" x1="18.0002" y1="14.2498" x2="18.0002" y2="8.1248" gradientUnits="userSpaceOnUse">
      <stop offset="0.7" stop-color="#00A167"></stop>
      <stop offset="1" stop-color="#009E66"></stop>
    </linearGradient>
    <linearGradient id="paint4_linear_334_59584" x1="7.5002" y1="21.3959" x2="7.5002" y2="7.10419" gradientUnits="userSpaceOnUse">
      <stop stop-color="#006C38"></stop>
      <stop offset="1" stop-color="#00824B"></stop>
    </linearGradient>
    <clipPath id="clip0_334_59584">
      <rect width="28" height="28" fill="white" transform="translate(0.5)"></rect>
    </clipPath>
  </defs>
</svg>