<svg width="16" height="16" viewBox="0 0 16 16" fill="none" xmlns="http://www.w3.org/2000/svg">
<g clip-path="url(#clip0_891_25960)">
<path fill-rule="evenodd" clip-rule="evenodd" d="M10.8591 0.571429C10.8591 0.255837 11.1149 0 11.4305 0C11.7461 0 12.002 0.255837 12.002 0.571429V4C12.002 4.31559 11.7461 4.57143 11.4305 4.57143C11.1149 4.57143 10.8591 4.31559 10.8591 4V0.571429ZM9.71624 1.71429L6.8591 1.71429V4C6.8591 4.94677 6.09158 5.71429 5.14481 5.71429C4.19804 5.71429 3.43052 4.94677 3.43052 4V1.75479C1.49207 2.03207 0.00195312 3.69916 0.00195312 5.71428V11.4286C0.00195312 13.6377 1.79281 15.4286 4.00195 15.4286H12.002C14.2111 15.4286 16.002 13.6377 16.002 11.4286V5.71429C16.002 3.90227 14.7971 2.37167 13.1448 1.87993V4C13.1448 4.94677 12.3773 5.71429 11.4305 5.71429C10.4838 5.71429 9.71624 4.94677 9.71624 4V1.71429ZM6.34487 8.64H12.0592C12.2107 8.64 12.356 8.57979 12.4632 8.47263C12.5704 8.36547 12.6306 8.22012 12.6306 8.06857C12.6306 7.91702 12.5704 7.77167 12.4632 7.66451C12.356 7.55734 12.2107 7.49714 12.0592 7.49714H6.34487C6.19331 7.49714 6.04797 7.55734 5.9408 7.66451C5.83364 7.77167 5.77344 7.91702 5.77344 8.06857C5.77344 8.22012 5.83364 8.36547 5.9408 8.47263C6.04797 8.57979 6.19331 8.64 6.34487 8.64ZM6.34487 12.0686H12.0592C12.2107 12.0686 12.356 12.0084 12.4632 11.9012C12.5704 11.794 12.6306 11.6487 12.6306 11.4971C12.6306 11.3456 12.5704 11.2002 12.4632 11.0931C12.356 10.9859 12.2107 10.9257 12.0592 10.9257H6.34487C6.19331 10.9257 6.04797 10.9859 5.9408 11.0931C5.83364 11.2002 5.77344 11.3456 5.77344 11.4971C5.77344 11.6487 5.83364 11.794 5.9408 11.9012C6.04797 12.0084 6.19331 12.0686 6.34487 12.0686ZM4.63058 12.0686H3.48772V10.9257H4.63058V12.0686ZM4.63058 7.49714H3.48772V8.64H4.63058V7.49714ZM5.14481 0C4.82922 0 4.57338 0.255837 4.57338 0.571428V4C4.57338 4.31559 4.82922 4.57143 5.14481 4.57143C5.4604 4.57143 5.71624 4.31559 5.71624 4V0.571428C5.71624 0.255837 5.4604 0 5.14481 0Z" fill="#788296" fill-opacity="0.25"/>
</g>
<defs>
<clipPath id="clip0_891_25960">
<rect width="16" height="16" fill="white" transform="translate(0.00195312)"/>
</clipPath>
</defs>
</svg>
