<svg width="28" height="28" viewBox="0 0 28 28" fill="none" xmlns="http://www.w3.org/2000/svg">
<g id="icon_fill_&#229;&#161;&#171;&#229;&#133;&#133;&#232;&#137;&#178;">
<path id="Union" fill-rule="evenodd" clip-rule="evenodd" d="M4 2H24C25.1046 2 26 2.89543 26 4V16C26 17.1046 25.1046 18 24 18H4C2.89543 18 2 17.1046 2 16V4C2 2.89543 2.89543 2 4 2ZM0 4C0 1.79086 1.79086 0 4 0H24C26.2091 0 28 1.79086 28 4V16C28 18.2091 26.2091 20 24 20H4C1.79086 20 0 18.2091 0 16V4ZM7.84766 7.43262C7.27799 7.55111 6.82227 7.70605 6.48047 7.89746V9.59961C7.27799 9.05273 8.12793 8.7793 9.03027 8.7793C9.94629 8.7793 10.4043 9.21908 10.4043 10.0986L8.32617 10.3789C6.59896 10.6159 5.73535 11.459 5.73535 12.9082C5.73535 13.61 5.94954 14.166 6.37793 14.5762C6.81087 14.9818 7.38509 15.1846 8.10059 15.1846C9.09408 15.1846 9.84831 14.7562 10.3633 13.8994H10.3906V15H12.4893V10.4336C12.4893 8.31445 11.432 7.25488 9.31738 7.25488C8.91178 7.25488 8.42188 7.31413 7.84766 7.43262ZM7.7793 12.6553C7.7793 12.04 8.17806 11.68 8.97559 11.5752L10.4043 11.3906V11.9307C10.4043 12.4046 10.2585 12.8011 9.9668 13.1201C9.67513 13.4391 9.30371 13.5986 8.85254 13.5986C8.52441 13.5986 8.26237 13.512 8.06641 13.3389C7.875 13.1657 7.7793 12.9378 7.7793 12.6553ZM16.5977 15V14.0908H16.625C17.1035 14.82 17.8122 15.1846 18.751 15.1846C19.7764 15.1846 20.599 14.8018 21.2188 14.0361C21.8385 13.2705 22.1484 12.2611 22.1484 11.0078C22.1484 9.83659 21.8773 8.91829 21.335 8.25293C20.7972 7.58757 20.0521 7.25488 19.0996 7.25488C18.0286 7.25488 17.2038 7.7015 16.625 8.59473H16.5977V3.80957H14.3896V15H16.5977ZM17.0078 12.9834C16.7116 12.6462 16.5635 12.2292 16.5635 11.7324V10.9258C16.5635 10.347 16.723 9.87305 17.042 9.50391C17.3656 9.13477 17.7734 8.9502 18.2656 8.9502C18.7852 8.9502 19.1839 9.13477 19.4619 9.50391C19.7445 9.86849 19.8857 10.3766 19.8857 11.0283C19.8857 11.8122 19.7308 12.4183 19.4209 12.8467C19.1156 13.2751 18.6872 13.4893 18.1357 13.4893C17.68 13.4893 17.304 13.3206 17.0078 12.9834Z" fill="white"/>
</g>
</svg>
