<svg width="48" height="46" viewBox="0 0 48 46" fill="none" xmlns="http://www.w3.org/2000/svg">
<g id="Frame 294">
<g id="Group 57">
<path id="Line 5" d="M32.2148 43.5649V22.9942" stroke="black" stroke-width="2" stroke-linecap="round"/>
<path id="Vector 19" d="M32.2148 22.9959C36.3595 22.7498 44.6487 22.4504 44.6487 27.1765C44.6487 33.0067 36.2939 32.5875 32.2148 32.5875C36.8959 32.7842 46.2213 31.274 46.2213 38.285C46.2213 45.2961 34.9179 43.5745 32.2148 43.5745" stroke="black" stroke-width="2"/>
</g>
<g id="Group 58">
<path id="Line 1" d="M8.45103 3.32617L1.41543 22.6563" stroke="black" stroke-width="2" stroke-linecap="round"/>
<path id="Line 2" d="M9.98959 3.32617L17.0252 22.6563" stroke="black" stroke-width="2" stroke-linecap="round"/>
<path id="Line 3" d="M4.01532 15.4292L14.2494 15.4292" stroke="black" stroke-width="2" stroke-linecap="round"/>
<path id="Line 4" d="M8.45103 3.32617L9.98615 3.32617" stroke="black" stroke-width="2" stroke-linecap="round"/>
</g>
<path id="Vector 20" d="M8.99348 26.5547C10.0691 30.7161 14.1703 38.9194 26.3883 39.3237" stroke="black" stroke-width="2" stroke-linecap="round"/>
<path id="Polygon 26" d="M27.8883 38.4579C28.555 38.8428 28.555 39.8051 27.8883 40.19L24.8883 41.922C24.2216 42.3069 23.3883 41.8258 23.3883 41.056L23.3883 37.5919C23.3883 36.8221 24.2216 36.341 24.8883 36.7259L27.8883 38.4579Z" fill="black"/>
</g>
</svg>
